<?xml version="1.0" standalone="no"?>
<!DOCTYPE svg PUBLIC "-//W3C//DTD SVG 20010904//EN"
 "http://www.w3.org/TR/2001/REC-SVG-20010904/DTD/svg10.dtd">
<svg version="1.0" xmlns="http://www.w3.org/2000/svg"
 width="980.000000pt" height="980.000000pt" viewBox="0 0 980.000000 980.000000"
 preserveAspectRatio="xMidYMid meet">
<metadata>
Created by potrace 1.11, written by Peter Selinger 2001-2013
</metadata>
<g transform="translate(0.000000,980.000000) scale(0.100000,-0.100000)"
fill="#000000" stroke="none">
<path d="M2955 9266 c-144 -45 -483 -266 -1230 -800 -711 -508 -1725 -1264
-1725 -1285 0 -27 78 -147 121 -186 23 -20 67 -49 98 -64 50 -23 67 -26 166
-25 95 0 119 4 178 27 160 64 202 77 309 99 99 20 142 23 348 23 268 -1 327
-11 475 -84 192 -96 329 -267 391 -491 17 -62 18 -215 21 -3013 l4 -2947 585
0 584 0 0 1553 c0 1508 7 2377 19 2377 10 0 845 -751 1651 -1484 912 -830 881
-799 952 -951 29 -63 32 -80 33 -160 0 -86 -2 -94 -35 -150 -23 -40 -118 -145
-285 -315 -285 -290 -303 -311 -350 -412 -57 -125 -80 -301 -46 -357 7 -11
358 -12 2237 -7 1226 4 2255 9 2287 12 47 5 57 9 57 25 0 27 -73 242 -108 320
l-30 66 -93 12 c-304 38 -560 126 -874 298 -439 241 -840 553 -1390 1083 -288
277 -842 789 -1785 1650 -251 230 -805 729 -890 802 l-54 48 44 46 c165 170
1208 1026 2141 1756 l325 255 49 -76 c65 -102 219 -255 328 -325 245 -160 527
-235 777 -206 400 45 749 279 923 618 148 286 182 575 102 859 -33 118 -130
307 -213 418 -98 132 -242 271 -338 326 -95 56 -247 114 -335 128 -83 14 -500
14 -607 1 -223 -28 -620 -184 -834 -327 -190 -127 -362 -282 -907 -813 -983
-960 -1502 -1440 -2451 -2267 l-275 -240 -7 1911 c-4 1051 -11 1952 -16 2001
-5 50 -18 110 -29 136 -24 54 -75 114 -114 135 -34 17 -129 17 -184 0z"/>
</g>
</svg>
